#!OML:ASF E:\Style6\Style6.ASF
:FULLY-SPECIFIED
:DEGREES
2287
root 0.36438 18.2749 1.12415 9.80975 -3.19284 -3.48744
lowerback -7.48381 -0.111834 3.07614
upperback -4.17175 -0.366815 2.77453
thorax -0.115881 -0.206391 1.10485
lowerneck -7.88599 0.111582 3.32242
upperneck 14.8805 0.487612 -5.21404
head 5.80586 0.0370926 -2.15834
rclavicle 2.48481e-016 7.95139e-016
rhumerus -15.7597 6.95106 -81.4369
rradius 54.9906
rwrist -2.0971
rhand -8.97273 -1.10325
rfingers 7.12502
rthumb 16.9727 -30.3817
lclavicle 2.48481e-016 7.95139e-016
lhumerus -15.8874 -3.29498 85.3772
lradius 50.2535
lwrist 18.1028
lhand -10.0348 27.3043
lfingers 7.12502
lthumb 15.9501 56.6676
rfemur 0 0 0
rtibia 0
rfoot 0 0
rtoes 0
lfemur -10.5544 -23.8844 -14.1581
ltibia 17.6066
lfoot -9.20469 27.7977
ltoes -7.00384
2288
root 0.364889 18.2754 1.12654 9.82606 -3.06349 -3.40743
lowerback -7.50136 -0.168617 2.96831
upperback -4.12345 -0.438282 2.78819
thorax -0.0552113 -0.239504 1.17383
lowerneck -7.90409 0.130953 3.32449
upperneck 14.7112 0.520664 -5.29914
head 5.7576 0.0479602 -2.18156
rclavicle -4.77083e-015 7.95139e-015
rhumerus -16.7532 6.50152 -81.5587
rradius 53.7742
rwrist -1.5071
rhand -9.09363 -0.675925
rfingers 7.12502
rthumb 16.8563 -29.9643
lclavicle -4.77083e-015 7.95139e-015
lhumerus -16.7982 -2.4774 85.6048
lradius 48.7866
lwrist 17.3407
lhand -10.229 28.1772
lfingers 7.12502
lthumb 15.7632 57.5553
rfemur 0 0 0
rtibia 0
rfoot 0 0
rtoes 0
lfemur -10.569 -24.0317 -14.2109
ltibia 17.5448
lfoot -9.13525 27.8271
ltoes -7.03516
2289
root 0.364236 18.2756 1.13007 9.85609 -2.95693 -3.38579
lowerback -7.54401 -0.195059 2.93751
upperback -4.07897 -0.47534 2.79831
thorax 0.014734 -0.256645 1.19839
lowerneck -7.94484 0.1289 3.3659
upperneck 14.5995 0.526955 -5.42792
head 5.73014 0.0441991 -2.22775
rclavicle 1.73937e-015 1.15295e-014
rhumerus -17.8025 5.92477 -81.6341
rradius 52.7242
rwrist -0.826785
rhand -9.01908 -0.228544
rfingers 7.12502
rthumb 16.9281 -29.5108
lclavicle 1.73937e-015 1.15295e-014
lhumerus -17.6383 -1.74213 85.7977
lradius 47.3079
lwrist 16.6935
lhand -10.2379 29.1298
lfingers 7.12502
lthumb 15.7545 58.5086
rfemur 0 0 0
rtibia 0
rfoot 0 0
rtoes 0
lfemur -10.6064 -24.1157 -14.1969
ltibia 17.5226
lfoot -9.14259 27.8236
ltoes -7.02141
2290
root 0.363413 18.276 1.1337 9.86879 -2.90097 -3.37015
lowerback -7.49725 -0.211493 2.91574
upperback -4.0707 -0.493743 2.79996
thorax -0.00229048 -0.265584 1.2111
lowerneck -7.96716 0.14226 3.37568
upperneck 14.5364 0.549331 -5.48211
head 5.71538 0.051872 -2.24434
rclavicle -2.23633e-015 -2.14687e-014
rhumerus -18.9472 5.38118 -81.7199
rradius 51.815
rwrist -0.162535
rhand -9.02433 0.192645
rfingers 7.12502
rthumb 16.923 -29.0901
lclavicle -2.23633e-015 -2.14687e-014
lhumerus -18.4838 -0.933541 85.9092
lradius 45.8098
lwrist 15.8599
lhand -10.4665 29.0738
lfingers 7.12502
lthumb 15.5343 58.4699
rfemur 0 0 0
rtibia 0
rfoot 0 0
rtoes 0
lfemur -10.6238 -24.1275 -14.2046
ltibia 17.5139
lfoot -8.93621 27.8461
ltoes -7.75136
2291
root 0.362967 18.2759 1.1361 9.8854 -2.86447 -3.44465
lowerback -7.41278 -0.206039 3.01111
upperback -4.07203 -0.488264 2.80986
thorax -0.0513109 -0.264589 1.16871
lowerneck -7.95781 0.161958 3.38171
upperneck 14.42 0.571979 -5.48595
head 5.67854 0.0639259 -2.24367
rclavicle -5.09386e-016 7.95139e-016
rhumerus -19.9962 4.77879 -81.7767
rradius 50.7413
rwrist 0.405216
rhand -9.06315 0.540346
rfingers 7.12502
rthumb 16.8856 -28.7456
lclavicle -5.09386e-016 7.95139e-016
lhumerus -19.2792 -0.0509991 85.9361
lradius 44.206
lwrist 14.7366
lhand -10.571 28.5181
lfingers 7.12502
lthumb 15.4338 57.9219
rfemur 0 0 0
rtibia 0
rfoot 0 0
rtoes 0
lfemur -10.6565 -24.1585 -14.1138
ltibia 17.5471
lfoot -8.89005 27.8758
ltoes -8.00312
2292
root 0.362991 18.2754 1.13646 9.93203 -2.81495 -3.47606
lowerback -7.3496 -0.229059 3.03088
upperback -4.07452 -0.516986 2.83922
thorax -0.0888296 -0.279304 1.18621
lowerneck -7.9379 0.197753 3.41772
upperneck 14.2455 0.623053 -5.57416
head 5.62327 0.0859691 -2.27204
rclavicle -6.17475e-015 8.74653e-015
rhumerus -20.9063 4.20277 -81.7882
rradius 49.5275
rwrist 0.931906
rhand -8.97377 0.85943
rfingers 7.12502
rthumb 16.9717 -28.4191
lclavicle -6.17475e-015 8.74653e-015
lhumerus -20.0315 0.946443 85.928
lradius 42.5114
lwrist 13.7119
lhand -10.3556 28.1044
lfingers 7.12502
lthumb 15.6412 57.4921
rfemur 0 0 0
rtibia 0
rfoot 0 0
rtoes 0
lfemur -10.743 -24.2686 -14.0472
ltibia 17.6095
lfoot -8.95237 27.9576
ltoes -7.89197
2293
root 0.362504 18.2751 1.13769 10.016 -2.77863 -3.55016
lowerback -7.35443 -0.238573 3.08303
upperback -4.07572 -0.533449 2.88884
thorax -0.0876507 -0.287859 1.20706
lowerneck -7.86208 0.23467 3.4436
upperneck 14.0273 0.680819 -5.6923
head 5.54524 0.109859 -2.3071
rclavicle 1.60519e-014 -1.63003e-014
rhumerus -21.7439 3.54084 -81.7582
rradius 48.2464
rwrist 1.41735
rhand -8.82127 1.34118
rfingers 7.12502
rthumb 17.1185 -27.9247
lclavicle 1.60519e-014 -1.63003e-014
lhumerus -20.8114 1.91403 85.9208
lradius 40.8588
lwrist 12.8232
lhand -10.2994 27.7682
lfingers 7.12502
lthumb 15.6953 57.1516
rfemur 0 0 0
rtibia 0
rfoot 0 0
rtoes 0
lfemur -10.8644 -24.3794 -13.9146
ltibia 17.6601
lfoot -8.99404 28.049
ltoes -7.8515
2294
root 0.362633 18.275 1.13999 10.1336 -2.71154 -3.62044
lowerback -7.43153 -0.255067 3.15219
upperback -4.08041 -0.56392 2.93711
thorax -0.0504044 -0.30339 1.21561
lowerneck -7.78099 0.274318 3.45593
upperneck 13.8418 0.74462 -5.80725
head 5.47699 0.136247 -2.33884
rclavicle 1.30452e-015 1.98785e-015
rhumerus -22.539 2.86688 -81.6794
rradius 46.9786
rwrist 1.81963
rhand -8.44199 1.69239
rfingers 7.12502
rthumb 17.4835 -27.5414
lclavicle 1.30452e-015 1.98785e-015
lhumerus -21.5072 3.12987 85.821
lradius 39.0841
lwrist 11.5584
lhand -10.1366 27.06
lfingers 7.12502
lthumb 15.8521 56.4311
rfemur 0 0 0
rtibia 0
rfoot 0 0
rtoes 0
lfemur -11.0115 -24.4903 -13.7577
ltibia 17.6557
lfoot -9.08406 28.1034
ltoes -7.44027
2295
root 0.363576 18.2764 1.14043 10.2062 -2.63902 -3.58081
lowerback -7.43034 -0.288612 3.12305
upperback -4.08981 -0.606225 2.94254
thorax -0.060411 -0.324182 1.23455
lowerneck -7.72291 0.313605 3.4876
upperneck 13.6839 0.802056 -5.89843
head 5.42109 0.161782 -2.36713
rclavicle 1.00635e-015 9.54166e-015
rhumerus -23.3314 1.9994 -81.5462
rradius 45.7364
rwrist 2.49443
rhand -7.73823 1.9953
rfingers 7.12502
rthumb 18.1607 -27.1769
lclavicle 1.00635e-015 9.54166e-015
lhumerus -22.0777 4.56112 85.5891
lradius 37.1542
lwrist 9.98439
lhand -9.86645 25.9757
lfingers 7.12502
lthumb 16.1123 55.326
rfemur 0 0 0
rtibia 0
rfoot 0 0
rtoes 0
lfemur -11.1043 -24.5829 -13.7447
ltibia 17.6203
lfoot -9.12833 28.1037
ltoes -7.25486
2296
root 0.36427 18.2775 1.14002 10.2432 -2.58937 -3.47052
lowerback -7.44436 -0.307044 2.99738
upperback -4.05298 -0.624936 2.93365
thorax -0.0129684 -0.331115 1.29402
lowerneck -7.75035 0.317066 3.48375
upperneck 13.5553 0.809976 -5.95769
head 5.38644 0.162108 -2.38341
rclavicle -4.67144e-015 7.95139e-015
rhumerus -24.0425 0.997238 -81.333
rradius 44.5206
rwrist 3.24385
rhand -7.13285 1.95631
rfingers 7.12502
rthumb 18.743 -27.1607
lclavicle -4.67144e-015 7.95139e-015
lhumerus -22.6111 5.95582 85.3326
lradius 35.3353
lwrist 8.33269
lhand -9.49747 25.3003
lfingers 7.12502
lthumb 16.4675 54.6214
rfemur 0 0 0
rtibia 0
rfoot 0 0
rtoes 0
lfemur -11.1345 -24.7191 -13.8307
ltibia 17.5534
lfoot -9.1025 28.1389
ltoes -7.16459
2297
root 0.364251 18.2783 1.13924 10.2823 -2.56977 -3.41944
lowerback -7.47 -0.311355 2.92305
upperback -3.99963 -0.629449 2.93727
thorax 0.0574234 -0.331433 1.33852
lowerneck -7.82881 0.318814 3.46256
upperneck 13.4618 0.811784 -5.97261
head 5.37103 0.160568 -2.38374
rclavicle 5.96354e-015 -1.59028e-015
rhumerus -24.6861 0.0777439 -81.1146
rradius 43.3399
rwrist 3.89461
rhand -6.7067 1.63748
rfingers 7.12502
rthumb 19.1529 -27.4394
lclavicle 5.96354e-015 -1.59028e-015
lhumerus -23.1794 7.13973 85.0441
lradius 33.6617
lwrist 6.81557
lhand -9.08332 24.9061
lfingers 7.12502
lthumb 16.8662 54.1936
rfemur 0 0 0
rtibia 0
rfoot 0 0
rtoes 0
lfemur -11.142 -24.8233 -13.854
ltibia 17.4629
lfoot -9.12004 28.1858
ltoes -6.81025
2298
root 0.364462 18.2787 1.139 10.313 -2.57772 -3.38161
lowerback -7.4244 -0.322433 2.86823
upperback -3.97754 -0.639431 2.9482
thorax 0.0559466 -0.33547 1.37992
lowerneck -7.88839 0.349845 3.48927
upperneck 13.375 0.856861 -6.05262
head 5.3569 0.178353 -2.40957
rclavicle 5.15598e-015 -2.46493e-014
rhumerus -25.3695 -0.803194 -80.9147
rradius 42.247
rwrist 4.57778
rhand -6.66723 1.63645
rfingers 7.12502
rthumb 19.1908 -27.4367
lclavicle 5.15598e-015 -2.46493e-014
lhumerus -23.7889 8.24293 84.7352
lradius 32.0389
lwrist 5.49148
lhand -8.88549 24.5021
lfingers 7.12502
lthumb 17.0567 53.7733
rfemur 0 0 0
rtibia 0
rfoot 0 0
rtoes 0
lfemur -11.1376 -24.9654 -13.8828
ltibia 17.3953
lfoot -8.97598 28.3556
ltoes -7.0435
2299
root 0.364608 18.2796 1.13995 10.3461 -2.56531 -3.43661
lowerback -7.33626 -0.325947 2.93799
upperback -4.01081 -0.642932 2.97649
thorax -0.0278127 -0.338768 1.37062
lowerneck -7.80389 0.374593 3.52868
upperneck 13.2691 0.897308 -6.15666
head 5.31204 0.195292 -2.44484
rclavicle 6.07536e-015 -3.18055e-015
rhumerus -26.1221 -1.64398 -80.6869
rradius 41.1126
rwrist 5.11895
rhand -6.9317 1.88625
rfingers 7.12502
rthumb 18.9365 -27.212
lclavicle 6.07536e-015 -3.18055e-015
lhumerus -24.5254 9.40875 84.3556
lradius 30.5016
lwrist 4.15336
lhand -8.89127 24.3955
lfingers 7.12502
lthumb 17.0511 53.6671
rfemur 0 0 0
rtibia 0
rfoot 0 0
rtoes 0
lfemur -11.1488 -25.0475 -13.8154
ltibia 17.3711
lfoot -8.87069 28.4736
ltoes -7.45895
2300
root 0.364913 18.2797 1.14058 10.3884 -2.55082 -3.48703
lowerback -7.2803 -0.327816 2.99239
upperback -4.03601 -0.645035 2.99765
thorax -0.085339 -0.341007 1.36242
lowerneck -7.70394 0.403931 3.59681
upperneck 13.1561 0.93867 -6.25048
head 5.26256 0.215201 -2.48151
rclavicle 4.22417e-015 -2.78299e-014
rhumerus -26.7806 -2.57885 -80.3794
rradius 39.7887
rwrist 5.71989
rhand -7.14441 2.24607
rfingers 7.12502
rthumb 18.7319 -26.872
lclavicle 4.22417e-015 -2.78299e-014
lhumerus -25.2371 10.7688 83.8485
lradius 28.961
lwrist 2.62661
lhand -8.80834 24.3334
lfingers 7.12502
lthumb 17.1309 53.5982
rfemur 0 0 0
rtibia 0
rfoot 0 0
rtoes 0
lfemur -11.1954 -25.1011 -13.7379
ltibia 17.3734
lfoot -8.90519 28.5266
ltoes -7.62
2301
root 0.365363 18.2797 1.14036 10.4245 -2.55803 -3.53297
lowerback -7.25927 -0.323582 3.05777
upperback -4.00762 -0.643571 3.00089
thorax -0.0684692 -0.340986 1.3292
lowerneck -7.73498 0.428477 3.65435
upperneck 13.1036 0.969541 -6.30871
head 5.25362 0.229238 -2.50685
rclavicle 1.51698e-014 -4.21423e-014
rhumerus -27.332 -3.62166 -80.0299
rradius 38.4742
rwrist 6.44087
rhand -7.2818 2.60952
rfingers 7.12502
rthumb 18.5998 -26.5213
lclavicle 1.51698e-014 -4.21423e-014
lhumerus -25.836 12.195 83.2752
lradius 27.4697
lwrist 1.04406
lhand -8.69249 24.1925
lfingers 7.12502
lthumb 17.2424 53.4476
rfemur 0 0 0
rtibia 0
rfoot 0 0
rtoes 0
lfemur -11.2473 -25.1842 -13.6663
ltibia 17.3901
lfoot -8.90787 28.6206
ltoes -7.59255
2302
root 0.366327 18.2802 1.13939 10.4666 -2.58223 -3.54778
lowerback -7.21791 -0.323753 3.09327
upperback -3.98845 -0.64466 3.00092
thorax -0.0719948 -0.342032 1.30942
lowerneck -7.82919 0.460774 3.67503
upperneck 13.1039 1.00907 -6.31254
head 5.27206 0.247814 -2.50901
rclavicle -2.50966e-015 -1.19271e-014
rhumerus -27.9204 -4.72278 -79.6323
rradius 37.3298
rwrist 7.18219
rhand -7.2165 2.79158
rfingers 7.12502
rthumb 18.6626 -26.3332
lclavicle -2.50966e-015 -1.19271e-014
lhumerus -26.4849 13.6261 82.6332
lradius 26.074
lwrist -0.651761
lhand -8.65049 24.3794
lfingers 7.12502
lthumb 17.2829 53.631
rfemur 0 0 0
rtibia 0
rfoot 0 0
rtoes 0
lfemur -11.2955 -25.2495 -13.6307
ltibia 17.3851
lfoot -8.902 28.7002
ltoes -7.35424
